# xmcd
#
# Track frame offsets: 
#        150
#        10313
#        21571
#        30995
#        40609
#        51073
#        63267
#        71179
#        82431
#        93622
#        102543
#        112265
#        124365
#        134718
#        145126
#        155181
#
# Disc length: 2200 seconds
#
# Revision: 1
# Processed by: cddbd v1.5.2PL0 Copyright (c) Steve Scherf et al.
# Submitted via: ExactAudioCopyFreeDBPlugin 1.0
#
DISCID=f8089610
DTITLE=The Chuck Wagon Gang - 16 Country Gospel Favorities
DYEAR=1984
DGENRE=Country
TTITLE0=I'll Fly Away
TTITLE1=Softly and Tenderly
TTITLE2=The Church In The Wildwood
TTITLE3=The Whole World In His Hands
TTITLE4=Echoes From The Burning Bush
TTITLE5=Just A Closer Walk with Thee
TTITLE6=Now the Day Is Over
TTITLE7=Power In The Blood
TTITLE8=Amazing Grace
TTITLE9=Are You Washed In The Blood
TTITLE10=Whispering Hope
TTITLE11=Swing Down Chariot
TTITLE12=Shall We Gather at the River
TTITLE13=Rock Of Ages
TTITLE14=When the Roll Is Called Up Yonder
TTITLE15=Standing On The Promises
EXTD=Courtesy of Copperfield Music Group\nProduced by Jack Eubanks\nEx
EXTD=ecutive Producer: Ken Biddy
EXTT0=
EXTT1=
EXTT2=
EXTT3=
EXTT4=
EXTT5=
EXTT6=
EXTT7=
EXTT8=
EXTT9=
EXTT10=
EXTT11=
EXTT12=
EXTT13=
EXTT14=
EXTT15=
PLAYORDER=
